HIERARCHY
ROOT Hips
{
  OFFSET 43.0842 91.1655 101.099
  CHANNELS 6 Xposition Yposition Zposition Zrotation Xrotation Yrotation
  JOINT LeftUpLeg
  {
    OFFSET 8.64259 1.95398 -2.38835
    CHANNELS 3 Zrotation Xrotation Yrotation
    JOINT LeftLeg
    {
      OFFSET 43.7702 0 0
      CHANNELS 3 Zrotation Xrotation Yrotation
      JOINT LeftFoot
      {
        OFFSET 40.6238 0 0
        CHANNELS 3 Zrotation Xrotation Yrotation
        JOINT LeftToeBase
        {
          OFFSET 12.7242 0 0
          CHANNELS 3 Zrotation Xrotation Yrotation
          End Site
          {
            OFFSET 0 0 0
          }
        }
      }
    }
  }
  JOINT RightUpLeg
  {
    OFFSET -8.2249 1.95398 -2.59336
    CHANNELS 3 Zrotation Xrotation Yrotation
    JOINT RightLeg
    {
      OFFSET 43.5653 0 0
      CHANNELS 3 Zrotation Xrotation Yrotation
      JOINT RightFoot
      {
        OFFSET 40.6238 0 0
        CHANNELS 3 Zrotation Xrotation Yrotation
        JOINT RightToeBase
        {
          OFFSET 12.7242 0 0
          CHANNELS 3 Zrotation Xrotation Yrotation
          End Site
          {
            OFFSET 0 0 0
          }
        }
      }
    }
  }
  JOINT Spine
  {
    OFFSET 0.165834 0.87714 6.61349
    CHANNELS 3 Zrotation Xrotation Yrotation
    JOINT Spine1
    {
      OFFSET 7.38963 1.71661e-005 0
      CHANNELS 3 Zrotation Xrotation Yrotation
      JOINT Spine2
      {
        OFFSET 11.9445 1.14441e-005 0
        CHANNELS 3 Zrotation Xrotation Yrotation
        JOINT Spine3
        {
          OFFSET 14.7254 4.19617e-005 0
          CHANNELS 3 Zrotation Xrotation Yrotation
          JOINT Spine4
          {
            OFFSET 10.9679 0 0
            CHANNELS 3 Zrotation Xrotation Yrotation
            JOINT RightShoulder
            {
              OFFSET 2.46616 -1.6653 3.69651
              CHANNELS 3 Zrotation Xrotation Yrotation
              JOINT RightArm
              {
                OFFSET 13.0012 0 0
                CHANNELS 3 Zrotation Xrotation Yrotation
                JOINT RightForeArm
                {
                  OFFSET 28.7848 1.52588e-005 0
                  CHANNELS 3 Zrotation Xrotation Yrotation
                  JOINT RightHand
                  {
                    OFFSET 26.5688 1.52588e-005 0
                    CHANNELS 3 Zrotation Xrotation Yrotation
                    End Site
                    {
                      OFFSET 0 0 0
                    }
                  }
                }
              }
            }
            JOINT LeftShoulder
            {
              OFFSET 2.38034 -1.29275 -3.7523
              CHANNELS 3 Zrotation Xrotation Yrotation
              JOINT LeftArm
              {
                OFFSET 16.3182 6.10351e-005 0
                CHANNELS 3 Zrotation Xrotation Yrotation
                JOINT LeftForeArm
                {
                  OFFSET 27.0901 0 0
                  CHANNELS 3 Zrotation Xrotation Yrotation
                  JOINT LeftHand
                  {
                    OFFSET 24.5451 1.52588e-005 0
                    CHANNELS 3 Zrotation Xrotation Yrotation
                    End Site
                    {
                      OFFSET 0 0 0
                    }
                  }
                }
              }
            }
            JOINT Neck
            {
              OFFSET 5.0226 -0.0266342 0
              CHANNELS 3 Zrotation Xrotation Yrotation
              JOINT Head
              {
                OFFSET 6.69364 2.86102e-005 0
                CHANNELS 3 Zrotation Xrotation Yrotation
                End Site
                {
                  OFFSET 0 0 0
                }
              }
            }
          }
        }
      }
    }
  }
}
MOTION
Frames:	14
Frame Time:	0.0333333
-8.27231 91.9067 39.3043 92.122 -6.43983 87.9075 -173.619 9.64692 94.704 -28.0027 15.8015 -1.19645 64.0495 4.90932 6.70973 37.2298 9.06251 3.29752 166.561 15.5155 74.326 -19.9619 3.03562 2.76021 61.003 -0.919758 0.328805 32.5303 -0.811717 -3.96833 0.571248 7.91089 -90.6325 11.0558 0.843834 -1.33967 -0.615618 0.784049 -1.37551 -23.1494 1.2074 -1.02417 -3.13675 1.20742 -1.02416 94.0326 -41.6801 -96.0624 36.8288 64.7522 -55.9764 -21.2855 -17.8412 -113.154 -8.7955 -0.708281 9.34688 -91.3932 -42.5578 74.7416 -28.9002 -5.44987 -67.2735 0.0911348 26.7785 -104.112 15.5406 1.83241 -1.27833 -34.1589 -6.81981 -11.8305 5.31006 -9.60387 -6.94115 
-8.58628 91.4632 38.8778 92.5852 -6.23172 88.4607 -173.81 10.4186 94.889 -30.2509 19.9185 -0.915156 64.1137 5.48028 10.5608 37.0778 8.85735 3.32188 167.121 14.7998 74.7028 -19.8316 2.26295 2.32882 60.8963 -0.414511 -0.79254 31.8857 -0.569675 -3.52086 0.617873 7.93864 -90.5471 11.0007 0.976608 -1.18189 -0.670457 0.923612 -1.22372 -23.2061 1.28663 -0.833745 -3.19347 1.28664 -0.833755 93.9143 -42.2393 -96.1595 37.9877 65.5513 -55.5858 -21.2682 -17.8287 -114.052 -8.83657 -0.726393 9.28009 -91.2339 -42.4924 74.9805 -28.5512 -5.51435 -67.1051 -0.231724 26.7355 -104.009 15.5688 1.87527 -1.9588 -33.9104 -6.71718 -11.5092 5.82971 -9.44543 -6.97493 
-8.83951 91.2264 38.6697 93.0998 -5.67438 89.126 -174.035 10.7824 95.2219 -31.7272 22.8266 -0.463126 63.7877 5.3618 13.2224 37.1643 8.86725 3.54378 167.432 14.0815 75.0408 -19.4759 2.62893 2.29102 59.9438 1.10702 -1.79566 30.2245 -0.569243 -0.724215 0.638118 7.94738 -90.5009 10.9834 1.03845 -1.09547 -0.687663 0.989244 -1.14012 -23.2242 1.31967 -0.732724 -3.21157 1.31967 -0.732727 93.8487 -42.7506 -96.1732 37.0703 66.0708 -53.3209 -20.5599 -17.633 -114.474 -8.83436 -0.726296 9.26859 -91.4266 -42.6152 74.7023 -28.2729 -5.16033 -66.7561 -0.256477 26.2865 -103.929 15.1592 1.8225 -1.94485 -34.0983 -6.76458 -11.5335 5.53918 -9.5319 -7.28859 
-9.05457 91.0047 38.5218 93.2917 -4.86715 89.6464 -174.489 11.3751 95.3918 -33.2009 24.5154 0.147776 63.9634 6.25255 14.4062 36.8263 7.75719 5.01486 167.641 14.0129 75.2122 -20.2966 2.70638 2.32722 59.9907 1.63581 -1.70222 30.2124 -1.03096 0.653916 0.598242 7.93784 -90.4523 11.0019 0.981438 -0.99363 -0.669047 0.936777 -1.03587 -23.2056 1.23468 -0.652719 -3.193 1.2347 -0.652723 93.9437 -43.3259 -95.9051 36.0263 66.0874 -51.4807 -20.4594 -17.2729 -115.079 -8.68515 -0.659756 9.49711 -91.474 -42.762 74.6664 -28.2733 -4.77176 -66.3809 0.749428 25.8343 -104.43 15.044 1.80348 -1.87185 -34.134 -6.75582 -11.5667 4.97402 -9.53453 -7.71068 
-9.26857 90.7227 38.4807 93.486 -4.15234 90.2131 -174.841 12.3661 95.7878 -35.2476 26.2312 0.653735 64.0518 6.53305 15.462 36.6713 7.60054 4.91089 167.568 13.8841 75.5 -20.9269 2.5233 2.50647 60.2306 1.61505 -2.06444 30.1731 -0.900846 0.335577 0.545558 7.93938 -90.4219 10.9982 0.89067 -0.92448 -0.672792 0.849146 -0.962793 -23.209 1.12733 -0.614051 -3.1964 1.12733 -0.614056 93.8844 -43.9279 -95.8925 35.4864 66.1616 -50.4221 -20.7216 -17.0145 -115.796 -8.0147 -0.435188 9.26938 -91.472 -42.707 74.6544 -28.7796 -4.84662 -66.1498 0.907586 26.1344 -104.558 15.04 1.81005 -1.98555 -34.3486 -6.72975 -11.4854 4.79448 -9.53669 -8.04458 
-9.41619 90.4284 38.412 93.8175 -4.19752 90.506 -174.949 12.8535 95.9736 -36.8927 27.4938 0.870944 64.172 6.80592 16.5793 36.3668 7.30134 4.69881 167.525 14.3334 75.5889 -22.237 1.05306 2.59529 60.46 1.69687 -3.09404 30.1417 -0.72565 -0.120987 0.536544 7.95864 -90.3897 10.9596 0.887887 -0.859547 -0.711411 0.849168 -0.897791 -23.2479 1.10513 -0.552956 -3.23524 1.10513 -0.552962 93.8744 -44.2445 -95.8511 34.0366 65.7772 -48.4723 -20.8116 -16.4883 -116.501 -8.23861 -0.491998 9.63405 -91.361 -42.6522 74.8186 -29.4128 -4.62966 -65.7612 0.983547 26.2656 -104.797 14.8952 1.78271 -1.84417 -34.3987 -6.80618 -11.3284 4.4306 -9.57393 -8.09989 
-9.58746 90.2515 38.3564 93.9361 -4.55124 90.6919 -174.941 13.3735 96.0576 -38.0704 27.2751 0.936812 64.3776 7.02953 16.5689 36.2674 7.13879 4.76487 167.655 14.9276 75.7911 -23.1476 -0.025286 2.53926 60.4844 1.75462 -3.90866 31.3727 -1.60791 0.464495 0.530514 7.94238 -90.3587 10.9919 0.889784 -0.798524 -0.678999 0.853785 -0.836915 -23.2157 1.08864 -0.494182 -3.20305 1.08864 -0.494176 93.8406 -44.2836 -95.8999 34.6115 65.7378 -48.4138 -20.4316 -16.653 -117.349 -8.81693 -0.691136 9.77514 -91.3814 -42.7508 74.8129 -29.5918 -4.72837 -65.2744 1.8611 26.2829 -105.473 14.8749 1.76002 -1.52723 -34.6112 -6.86197 -11.0804 4.29232 -9.61253 -8.20772 
-9.6753 90.1364 38.4188 94.2454 -4.61223 90.8282 -174.857 13.5281 96.2627 -38.8977 28.1445 0.99003 64.2826 6.65793 17.0399 36.5487 7.45636 4.87434 167.777 14.924 76.0255 -23.6595 -0.231116 2.33311 60.5507 1.67802 -4.53962 30.888 -1.1774 -0.0197153 0.471099 7.95071 -90.3402 10.9747 0.780297 -0.751131 -0.696248 0.746492 -0.784742 -23.2324 0.969982 -0.481882 -3.21977 0.969979 -0.481887 93.822 -44.5203 -95.8873 35.3832 65.3452 -49.1184 -20.268 -16.983 -117.825 -8.62279 -0.600602 10.1148 -91.4395 -42.9051 74.7618 -29.5632 -4.82573 -64.8968 2.15309 25.8957 -106.162 14.5138 1.70838 -1.45976 -35.0415 -6.98531 -10.4222 4.34102 -9.73478 -8.94824 
-9.75634 90.0381 38.4653 94.475 -4.46671 90.8768 -174.779 13.6125 96.3893 -39.383 28.9043 1.01279 64.2305 6.56735 17.4805 36.588 7.46477 4.9654 167.832 14.8991 76.1469 -24.0036 0.829522 2.17777 60.7025 1.56135 -4.58714 30.9747 -1.5334 0.89492 0.392241 7.94247 -90.293 10.9905 0.645222 -0.644491 -0.680447 0.616259 -0.672267 -23.2162 0.809091 -0.420778 -3.20359 0.809085 -0.420781 93.7148 -44.8123 -96.0106 35.2068 64.7398 -48.5942 -19.8528 -16.5683 -118.19 -7.73085 -0.299553 9.78743 -91.4787 -42.8215 74.6751 -29.4497 -4.63306 -64.6446 2.55227 25.2305 -106.753 14.4351 1.67527 -1.12152 -35.3329 -6.94867 -10.5028 4.40409 -9.76151 -9.09696 
-9.75605 90.0101 38.501 94.5896 -4.29141 90.8618 -174.72 13.5943 96.4167 -39.4801 28.8276 1.01614 64.2986 6.72829 17.2875 36.5509 7.37204 5.05655 167.636 15.0668 75.9593 -24.6654 -0.494352 2.32689 60.7593 1.62502 -5.00266 30.8902 -1.2415 0.1636 0.319809 7.93463 -90.2433 11.0057 0.523933 -0.534246 -0.665303 0.499913 -0.556787 -23.2009 0.660264 -0.352082 -3.18822 0.660268 -0.352083 93.6625 -44.8934 -96.0816 35.277 64.5021 -48.1942 -19.3118 -16.7323 -118.532 -7.68131 -0.282062 9.77243 -91.5982 -42.9849 74.5283 -29.6012 -4.87131 -64.6628 2.09568 25.7273 -106.634 14.9251 1.75525 -1.35132 -35.1434 -7.48635 -11.4629 3.72217 -10.3503 -8.30853 
-9.74899 89.9723 38.5615 94.6202 -4.17935 90.901 -174.669 13.6544 96.5202 -39.6097 28.7971 1.01756 64.3896 6.87519 17.1593 36.6164 7.51808 4.9321 167.557 15.0785 75.9706 -24.8657 -0.358671 2.38626 60.883 1.40058 -4.6985 31.1515 -1.26436 -0.201437 0.27229 7.91862 -90.2278 11.0374 0.436479 -0.495211 -0.633584 0.414266 -0.513943 -23.1689 0.565148 -0.341131 -3.15627 0.565129 -0.34114 93.916 -44.7075 -95.6981 35.0804 63.7848 -47.6674 -19.2718 -16.4242 -118.587 -7.78965 -0.313926 9.88159 -91.6481 -43.0891 74.4769 -29.5794 -4.3663 -64.6546 2.15737 25.5058 -106.555 14.7672 1.69572 -0.758233 -34.7809 -7.68233 -11.4535 3.22231 -10.4625 -8.2083 
-9.7483 90.0036 38.6256 94.8282 -4.2395 90.9593 -174.579 13.4382 96.6385 -39.5872 29.0237 1.03179 64.2997 6.72491 17.223 36.663 7.49996 5.09877 167.59 14.8629 76.1041 -24.8075 0.786587 2.26094 60.8194 1.37249 -4.10047 31.1358 -1.37595 0.157181 0.25969 7.9073 -90.2285 11.06 0.410965 -0.494315 -0.610949 0.388825 -0.511928 -23.1462 0.540545 -0.347943 -3.13356 0.540539 -0.347949 93.8198 -44.6716 -95.8633 34.4592 63.8766 -46.6905 -19.2375 -16.4132 -118.832 -8.56779 -0.605433 9.70008 -91.9662 -43.4949 74.0812 -29.2875 -4.41217 -64.4481 2.40875 25.402 -106.62 13.9242 1.57402 -0.667997 -34.9289 -8.10047 -11.161 3.16956 -10.8919 -8.77284 
-9.7517 90.0118 38.685 94.9895 -4.41329 90.9542 -174.506 13.1749 96.6566 -39.4616 29.0059 1.01809 64.3443 6.77051 17.0988 36.6206 7.27624 5.44753 167.543 14.7246 76.1102 -24.7229 0.770905 2.24022 60.8932 1.24504 -4.11418 30.9806 -1.34075 0.308707 0.263727 7.89647 -90.2109 11.0817 0.427103 -0.461042 -0.589296 0.406404 -0.479401 -23.1247 0.545929 -0.311363 -3.11202 0.545915 -0.311368 93.8174 -44.8732 -95.8304 33.3819 63.6689 -45.7203 -19.0976 -16.1628 -118.727 -7.85941 -0.369284 9.43294 -91.8079 -43.3486 74.2935 -29.3539 -3.8391 -64.3093 2.43959 25.3213 -106.711 14.2615 1.61464 -0.582708 -34.755 -8.07027 -11.1533 3.22579 -10.8477 -8.84372 
-9.77454 90.0225 38.76 95.0245 -4.65277 90.9898 -174.381 13.1118 96.7624 -39.4213 28.9506 0.951871 64.3365 6.77791 17.1272 36.5888 7.25855 5.39636 167.624 14.8186 76.1783 -24.9101 0.731234 2.21973 60.8019 1.24791 -3.6595 31.9033 -1.93988 0.58646 0.260374 7.87762 -90.2095 11.1194 0.421037 -0.457831 -0.551606 0.40046 -0.475917 -23.087 0.539178 -0.310128 -3.07431 0.539161 -0.310129 93.6496 -45.0767 -96.0691 32.7361 63.7668 -45.3468 -18.7966 -16.563 -118.683 -7.59182 -0.257909 9.6546 -91.6894 -43.3289 74.4775 -29.0858 -3.42917 -63.9804 3.03481 24.7506 -107.241 14.2129 1.59566 -0.408157 -34.5737 -8.09487 -10.8139 3.02654 -10.7826 -8.91065 
